<svg width="21" height="16" viewBox="0 0 21 16" fill="none" xmlns="http://www.w3.org/2000/svg">
<path d="M6.04102 4.125C7.79102 2.375 10.666 2.375 12.416 4.125C13.9785 5.6875 14.1973 8.15625 12.916 9.96875L12.8848 10C12.5723 10.4688 11.9473 10.5625 11.4785 10.25C11.041 9.90625 10.916 9.28125 11.2598 8.84375L11.291 8.8125C12.0098 7.78125 11.8848 6.4375 11.0098 5.5625C10.041 4.5625 8.44727 4.5625 7.44727 5.5625L3.94727 9.0625C2.94727 10.0312 2.94727 11.625 3.94727 12.625C4.82227 13.5 6.19727 13.5938 7.19727 12.9062L7.22852 12.8438C7.69727 12.5312 8.32227 12.625 8.63477 13.0938C8.94727 13.5312 8.85352 14.1562 8.41602 14.5L8.35352 14.5312C6.54102 15.8125 4.10352 15.5938 2.54102 14.0312C0.759766 12.2812 0.759766 9.40625 2.54102 7.65625L6.04102 4.125ZM15.2598 11.875C13.5098 13.6562 10.6348 13.6562 8.88477 11.875C7.32227 10.3125 7.10352 7.875 8.38477 6.0625L8.41602 6.03125C8.72852 5.5625 9.35352 5.46875 9.82227 5.78125C10.2598 6.09375 10.3848 6.71875 10.041 7.1875L10.0098 7.21875C9.29102 8.21875 9.41602 9.59375 10.291 10.4688C11.2598 11.4688 12.8535 11.4688 13.8535 10.4688L17.3535 6.96875C18.3535 5.96875 18.3535 4.375 17.3535 3.40625C16.4785 2.53125 15.1035 2.40625 14.1035 3.125L14.0723 3.15625C13.6035 3.5 12.9785 3.375 12.666 2.9375C12.3535 2.5 12.4473 1.875 12.8848 1.53125L12.9473 1.5C14.7598 0.21875 17.1973 0.4375 18.7598 2C20.541 3.75 20.541 6.625 18.7598 8.375L15.2598 11.875Z" fill="#4C4C4C"/>
</svg>
