<svg width="17" height="17" viewBox="0 0 17 17" fill="none" xmlns="http://www.w3.org/2000/svg">
<path d="M14.332 6.5C15.4258 6.5 16.332 7.40625 16.332 8.5V11.5C16.332 12.0625 15.8633 12.5 15.332 12.5H14.332V15.5C14.332 16.0625 13.8633 16.5 13.332 16.5H3.33203C2.76953 16.5 2.33203 16.0625 2.33203 15.5V12.5H1.33203C0.769531 12.5 0.332031 12.0625 0.332031 11.5V8.5C0.332031 7.40625 1.20703 6.5 2.33203 6.5H14.332ZM12.332 14.5V11.5H4.33203V14.5H12.332ZM13.832 9.75C14.2383 9.75 14.582 9.4375 14.582 9C14.582 8.59375 14.2383 8.25 13.832 8.25C13.3945 8.25 13.082 8.59375 13.082 9C13.082 9.4375 13.3945 9.75 13.832 9.75ZM4.33203 2.5V5.5H2.33203V1.5C2.33203 0.96875 2.76953 0.5 3.33203 0.5H11.8945C12.1758 0.5 12.4258 0.625 12.6133 0.8125L14.0195 2.21875C14.207 2.40625 14.332 2.65625 14.332 2.9375V5.5H12.332V3.34375L11.4883 2.5H4.33203Z" fill="#4C4C4C"/>
</svg>
