<svg width="20" height="20" viewBox="0 0 20 20" fill="none" xmlns="http://www.w3.org/2000/svg">
<path d="M5.84375 9C5.09375 9 4.6875 8.09375 5.25 7.53125L9.375 3.28125C9.53125 3.09375 9.78125 3 10 3C10.2188 3 10.4375 3.09375 10.5938 3.28125L14.7188 7.53125C15.2812 8.09375 14.875 9 14.125 9H5.84375ZM14.125 11C14.875 11 15.2812 11.9375 14.7188 12.5L10.5938 16.75C10.4375 16.9375 10.2188 17 10 17C9.75 17 9.53125 16.9375 9.375 16.75L5.25 12.5C4.6875 11.9375 5.09375 11 5.84375 11H14.125Z" fill="#4C4C4C"/>
</svg>
